# xmcd
#
# Track frame offsets:
#	183
#	14808
#	41733
#	56458
#	75433
#	86908
#	101433
#	117533
#	144233
#	169733
#	190558
#
# Disc length: 2955 seconds
#
# Revision: 1
# Processed by: cddbd v1.5.2PL0 Copyright (c) Steve Scherf et al.
# Submitted via: audiograbber 1.83.01
#
DISCID=8b0b890b
DTITLE=Meinert and Kropp - Innocence Is Gone
DYEAR=1994
DGENRE=Blues
TTITLE0=Sweet Kind Of Woman
TTITLE1=Innocence Is Gone
TTITLE2=Ganz einfach
TTITLE3=Mighty Long Time
TTITLE4=Keine Wahl
TTITLE5=Good Morning School Girl
TTITLE6=Aint' Nobody Sing Them Lullabies Like You
TTITLE7=Need My Baby
TTITLE8=Alles wegen Dir
TTITLE9=No Need For Running
TTITLE10=Roundabout
EXTD=
EXTT0=
EXTT1=
EXTT2=
EXTT3=
EXTT4=
EXTT5=
EXTT6=
EXTT7=
EXTT8=
EXTT9=
EXTT10=
PLAYORDER=
